<svg width="36" height="11" viewBox="0 0 36 11" fill="none" xmlns="http://www.w3.org/2000/svg">
<path d="M4.634 10.084C3.878 10.084 3.20133 9.88333 2.604 9.482C2.016 9.08067 1.554 8.50667 1.218 7.76C0.891333 7.004 0.728 6.11733 0.728 5.1C0.728 4.08267 0.891333 3.20067 1.218 2.454C1.554 1.698 2.016 1.11933 2.604 0.717999C3.20133 0.316666 3.878 0.116 4.634 0.116C5.39 0.116 6.062 0.316666 6.65 0.717999C7.24733 1.11933 7.714 1.698 8.05 2.454C8.386 3.20067 8.554 4.08267 8.554 5.1C8.554 6.11733 8.386 7.004 8.05 7.76C7.714 8.50667 7.24733 9.08067 6.65 9.482C6.062 9.88333 5.39 10.084 4.634 10.084ZM4.634 9.16C5.20333 9.16 5.70267 9.00133 6.132 8.684C6.57067 8.36667 6.91133 7.90467 7.154 7.298C7.39667 6.69133 7.518 5.95867 7.518 5.1C7.518 4.24133 7.39667 3.50867 7.154 2.902C6.91133 2.29533 6.57067 1.83333 6.132 1.516C5.70267 1.19867 5.20333 1.04 4.634 1.04C4.06467 1.04 3.56067 1.19867 3.122 1.516C2.69267 1.83333 2.35667 2.29533 2.114 2.902C1.87133 3.50867 1.75 4.24133 1.75 5.1C1.75 5.95867 1.87133 6.69133 2.114 7.298C2.35667 7.90467 2.69267 8.36667 3.122 8.684C3.56067 9.00133 4.06467 9.16 4.634 9.16ZM13.1928 4.4C14.2195 4.456 14.9988 4.736 15.5308 5.24C16.0721 5.73467 16.3428 6.38333 16.3428 7.186C16.3428 7.746 16.2075 8.24533 15.9368 8.684C15.6661 9.11333 15.2648 9.454 14.7328 9.706C14.2008 9.958 13.5521 10.084 12.7868 10.084C12.0775 10.084 11.4055 9.972 10.7708 9.748C10.1455 9.51467 9.64148 9.20667 9.25881 8.824L9.74881 8.026C10.0755 8.362 10.5095 8.63733 11.0508 8.852C11.5921 9.05733 12.1708 9.16 12.7868 9.16C13.5895 9.16 14.2101 8.98733 14.6488 8.642C15.0875 8.28733 15.3068 7.802 15.3068 7.186C15.3068 6.57933 15.0875 6.10333 14.6488 5.758C14.2101 5.41267 13.5475 5.24 12.6608 5.24H11.9608V4.498L14.6768 1.096H9.66481V0.199999H15.9648V0.913999L13.1928 4.4ZM18.5192 4.106C18.3138 4.106 18.1365 4.03133 17.9872 3.882C17.8472 3.73267 17.7772 3.55067 17.7772 3.336C17.7772 3.12133 17.8472 2.944 17.9872 2.804C18.1365 2.65467 18.3138 2.58 18.5192 2.58C18.7245 2.58 18.9018 2.65467 19.0512 2.804C19.2005 2.944 19.2752 3.12133 19.2752 3.336C19.2752 3.55067 19.2005 3.73267 19.0512 3.882C18.9018 4.03133 18.7245 4.106 18.5192 4.106ZM18.5192 10.07C18.3138 10.07 18.1365 9.99533 17.9872 9.846C17.8472 9.69667 17.7772 9.51467 17.7772 9.3C17.7772 9.08533 17.8472 8.908 17.9872 8.768C18.1365 8.61867 18.3138 8.544 18.5192 8.544C18.7245 8.544 18.9018 8.61867 19.0512 8.768C19.2005 8.908 19.2752 9.08533 19.2752 9.3C19.2752 9.51467 19.2005 9.69667 19.0512 9.846C18.9018 9.99533 18.7245 10.07 18.5192 10.07ZM24.062 4.4C25.0886 4.456 25.868 4.736 26.4 5.24C26.9413 5.73467 27.212 6.38333 27.212 7.186C27.212 7.746 27.0766 8.24533 26.806 8.684C26.5353 9.11333 26.134 9.454 25.602 9.706C25.07 9.958 24.4213 10.084 23.656 10.084C22.9466 10.084 22.2746 9.972 21.64 9.748C21.0146 9.51467 20.5106 9.20667 20.128 8.824L20.618 8.026C20.9446 8.362 21.3786 8.63733 21.92 8.852C22.4613 9.05733 23.04 9.16 23.656 9.16C24.4586 9.16 25.0793 8.98733 25.518 8.642C25.9566 8.28733 26.176 7.802 26.176 7.186C26.176 6.57933 25.9566 6.10333 25.518 5.758C25.0793 5.41267 24.4166 5.24 23.53 5.24H22.83V4.498L25.546 1.096H20.534V0.199999H26.834V0.913999L24.062 4.4ZM31.8959 4.4C32.9226 4.456 33.7019 4.736 34.2339 5.24C34.7753 5.73467 35.0459 6.38333 35.0459 7.186C35.0459 7.746 34.9106 8.24533 34.6399 8.684C34.3693 9.11333 33.9679 9.454 33.4359 9.706C32.9039 9.958 32.2553 10.084 31.4899 10.084C30.7806 10.084 30.1086 9.972 29.4739 9.748C28.8486 9.51467 28.3446 9.20667 27.9619 8.824L28.4519 8.026C28.7786 8.362 29.2126 8.63733 29.7539 8.852C30.2953 9.05733 30.8739 9.16 31.4899 9.16C32.2926 9.16 32.9133 8.98733 33.3519 8.642C33.7906 8.28733 34.0099 7.802 34.0099 7.186C34.0099 6.57933 33.7906 6.10333 33.3519 5.758C32.9133 5.41267 32.2506 5.24 31.3639 5.24H30.6639V4.498L33.3799 1.096H28.3679V0.199999H34.6679V0.913999L31.8959 4.4Z" fill="#333333"/>
</svg>
